<svg width="73" height="11" viewBox="0 0 73 11" fill="none" xmlns="http://www.w3.org/2000/svg">
<path d="M4.50806 7.27832H5.79606V5.66071V5.01415V3.39655H4.50806V5.01415V5.66071V7.27832Z" fill="#5A668A"/>
<ellipse cx="0.644001" cy="4.97352" rx="0.644001" ry="0.66718" fill="#5A668A"/>
<ellipse cx="0.644001" cy="5.70136" rx="0.644001" ry="0.66718" fill="#5A668A"/>
<rect y="4.97351" width="1.288" height="0.727833" fill="#5A668A"/>
<ellipse cx="9.65999" cy="5.70136" rx="0.644001" ry="0.66718" fill="#5A668A"/>
<ellipse cx="9.65999" cy="4.97352" rx="0.644001" ry="0.66718" fill="#5A668A"/>
<rect x="10.304" y="5.70135" width="1.288" height="0.727833" transform="rotate(180 10.304 5.70135)" fill="#5A668A"/>
<ellipse cx="2.86873" cy="7.15702" rx="0.644001" ry="0.66718" fill="#5A668A"/>
<ellipse cx="2.86873" cy="7.88486" rx="0.644001" ry="0.66718" fill="#5A668A"/>
<rect x="2.22473" y="7.15701" width="1.288" height="0.727833" fill="#5A668A"/>
<ellipse cx="2.86873" cy="2.79001" rx="0.644001" ry="0.66718" fill="#5A668A"/>
<ellipse cx="2.86873" cy="5.15549" rx="0.644001" ry="0.66718" fill="#5A668A"/>
<rect x="2.22473" y="2.79004" width="1.288" height="2.38062" fill="#5A668A"/>
<ellipse cx="7.43526" cy="3.51786" rx="0.644001" ry="0.66718" fill="#5A668A"/>
<ellipse cx="7.43526" cy="2.79001" rx="0.644001" ry="0.66718" fill="#5A668A"/>
<rect x="8.07922" y="3.51785" width="1.288" height="0.727833" transform="rotate(180 8.07922 3.51785)" fill="#5A668A"/>
<ellipse cx="5.15206" cy="1.39502" rx="0.644001" ry="0.66718" fill="#5A668A"/>
<ellipse cx="5.15206" cy="0.66718" rx="0.644001" ry="0.66718" fill="#5A668A"/>
<rect x="5.79602" y="1.39502" width="1.288" height="0.727833" transform="rotate(180 5.79602 1.39502)" fill="#5A668A"/>
<ellipse cx="5.15206" cy="10.0077" rx="0.644001" ry="0.66718" fill="#5A668A"/>
<ellipse cx="5.15206" cy="9.27985" rx="0.644001" ry="0.66718" fill="#5A668A"/>
<rect x="5.79602" y="10.0077" width="1.288" height="0.727833" transform="rotate(180 5.79602 10.0077)" fill="#5A668A"/>
<ellipse cx="7.43526" cy="7.88486" rx="0.644001" ry="0.66718" fill="#5A668A"/>
<ellipse cx="7.43526" cy="5.51938" rx="0.644001" ry="0.66718" fill="#5A668A"/>
<rect x="8.07922" y="7.88486" width="1.288" height="2.36546" transform="rotate(180 8.07922 7.88486)" fill="#5A668A"/>
<ellipse cx="5.15206" cy="3.39655" rx="0.644001" ry="0.66718" fill="#5A668A"/>
<ellipse cx="5.15206" cy="7.27833" rx="0.644001" ry="0.66718" fill="#5A668A"/>
<path fill-rule="evenodd" clip-rule="evenodd" d="M40.6472 7.82358H41.4349V5.38482H42.7364C43.2559 5.38482 43.7054 5.21523 44.085 4.87605C44.4646 4.53686 44.6544 4.10938 44.6544 3.5936C44.6544 3.07781 44.4646 2.65033 44.085 2.31114C43.7054 1.97196 43.2559 1.80237 42.7364 1.80237H40.6472V7.82358ZM42.7535 4.64479H41.4349V2.54241H42.7535C43.0846 2.54241 43.35 2.65173 43.5498 2.87038C43.7496 3.08903 43.8495 3.3301 43.8495 3.5936C43.8495 3.85709 43.7496 4.09817 43.5498 4.31681C43.35 4.53546 43.0846 4.64479 42.7535 4.64479ZM45.3075 4.19908C45.7128 3.7786 46.2294 3.56837 46.8573 3.56837C47.4852 3.56837 48.0018 3.7772 48.407 4.19488C48.8123 4.61255 49.015 5.13534 49.015 5.76325C49.015 6.39116 48.8123 6.91395 48.407 7.33162C48.0018 7.7493 47.4852 7.95813 46.8573 7.95813C46.2294 7.95813 45.7128 7.7493 45.3075 7.33162C44.9022 6.91395 44.6996 6.39116 44.6996 5.76325C44.6996 5.13534 44.9022 4.61395 45.3075 4.19908ZM46.8573 7.25174C46.4862 7.25174 46.1637 7.11718 45.8897 6.84808C45.6214 6.57336 45.4873 6.21176 45.4873 5.76325C45.4873 5.31474 45.6229 4.95454 45.894 4.68263C46.1652 4.41072 46.4862 4.27477 46.8573 4.27477C47.2283 4.27477 47.5494 4.41072 47.8205 4.68263C48.0917 4.95454 48.2272 5.31474 48.2272 5.76325C48.2272 6.21176 48.0917 6.57196 47.8205 6.84387C47.5494 7.11578 47.2283 7.25174 46.8573 7.25174ZM51.3891 7.95813C50.8468 7.95813 50.3788 7.7479 49.9849 7.32742C49.591 6.90694 49.3941 6.38556 49.3941 5.76325C49.3941 5.14094 49.591 4.61956 49.9849 4.19908C50.3788 3.7786 50.8468 3.56837 51.3891 3.56837C51.7088 3.56837 51.9956 3.63564 52.2496 3.7702C52.5036 3.90475 52.6934 4.07294 52.819 4.27477H52.8533L52.819 3.70292V1.80237H53.6068V7.82358H52.8533V7.25174H52.819C52.6934 7.45356 52.5036 7.62175 52.2496 7.7563C51.9956 7.89086 51.7088 7.95813 51.3891 7.95813ZM52.4637 6.84808C52.204 7.11718 51.8886 7.25174 51.5176 7.25174C51.1522 7.25174 50.8383 7.11578 50.5757 6.84387C50.3131 6.57196 50.1818 6.21176 50.1818 5.76325C50.1818 5.31474 50.3131 4.95454 50.5757 4.68263C50.8383 4.41072 51.1522 4.27477 51.5176 4.27477C51.8886 4.27477 52.204 4.40932 52.4637 4.67842C52.7234 4.94753 52.8533 5.30914 52.8533 5.76325C52.8533 6.21737 52.7234 6.57897 52.4637 6.84808ZM56.3405 7.95813C55.7126 7.95813 55.196 7.7493 54.7908 7.33162C54.3855 6.91395 54.1828 6.39116 54.1828 5.76325C54.1828 5.13534 54.3855 4.61255 54.7908 4.19488C55.196 3.7772 55.7126 3.56837 56.3405 3.56837C56.8086 3.56837 57.1968 3.68049 57.505 3.90475C57.8132 4.129 58.0387 4.41212 58.1814 4.75411L57.4622 5.04844C57.2453 4.53265 56.8543 4.27477 56.2892 4.27477C55.941 4.27477 55.6341 4.41492 55.3687 4.69524C55.1033 4.97556 54.9706 5.33156 54.9706 5.76325C54.9706 6.19494 55.1033 6.55094 55.3687 6.83126C55.6341 7.11158 55.941 7.25174 56.2892 7.25174C56.8771 7.25174 57.2824 6.99385 57.505 6.47806L58.2071 6.77239C58.0644 7.10877 57.8346 7.39049 57.5178 7.61755C57.201 7.84461 56.8086 7.95813 56.3405 7.95813ZM58.9587 7.57971C59.2584 7.83199 59.6308 7.95813 60.0761 7.95813H60.0761C60.6812 7.95813 61.1407 7.72267 61.4547 7.25174H61.4889V7.82358H62.2424V5.33437C62.2424 4.77373 62.0654 4.33924 61.7115 4.03089C61.3576 3.72254 60.9123 3.56837 60.3758 3.56837C59.9077 3.56837 59.531 3.67348 59.2455 3.88373C58.9601 4.09396 58.7689 4.32242 58.6719 4.5691L59.3911 4.87184C59.4596 4.68683 59.5866 4.54107 59.7721 4.43455C59.9576 4.32803 60.1646 4.27477 60.3929 4.27477C60.7011 4.27477 60.9609 4.36587 61.1721 4.54808C61.3833 4.73028 61.4889 4.97275 61.4889 5.2755V5.39323C61.192 5.22504 60.8125 5.14094 60.3501 5.14094C59.8306 5.14094 59.394 5.26849 59.0401 5.52358C58.6861 5.77867 58.5092 6.13046 58.5092 6.57897C58.5092 6.99384 58.659 7.32742 58.9587 7.57971ZM60.2045 7.25174C60.5299 7.25174 60.8253 7.1326 61.0907 6.89433C61.3562 6.65606 61.4889 6.37434 61.4889 6.04917C61.2662 5.86977 60.9323 5.78007 60.4871 5.78007C60.1046 5.78007 59.8164 5.86136 59.6223 6.02395C59.4282 6.18653 59.3312 6.37715 59.3312 6.59579C59.3312 6.79762 59.4196 6.9574 59.5966 7.07514C59.7736 7.19287 59.9762 7.25174 60.2045 7.25174ZM63.3878 7.62175C63.6932 7.84601 64.0799 7.95813 64.548 7.95813C65.0332 7.95813 65.4299 7.8348 65.7382 7.58812C66.0464 7.34144 66.2005 7.03309 66.2005 6.66307C66.2005 6.38836 66.1063 6.14168 65.918 5.92303C65.7296 5.70438 65.4385 5.55021 65.0446 5.46051L64.2141 5.26709C63.843 5.18299 63.6575 5.02321 63.6575 4.78775C63.6575 4.62516 63.7374 4.49622 63.8973 4.40091C64.0571 4.3056 64.254 4.25795 64.4881 4.25795C64.9733 4.25795 65.2929 4.44015 65.4471 4.80457L66.132 4.52705C66.0064 4.2187 65.7981 3.98184 65.507 3.81645C65.2159 3.65106 64.8848 3.56837 64.5138 3.56837C64.0628 3.56837 63.6732 3.6819 63.345 3.90895C63.0168 4.13601 62.8527 4.43174 62.8527 4.79616C62.8527 5.11572 62.9725 5.36941 63.2123 5.55722C63.452 5.74503 63.706 5.87257 63.9743 5.93985L64.822 6.14168C65.2045 6.23699 65.3957 6.41919 65.3957 6.6883C65.3957 6.86209 65.3172 7.00225 65.1602 7.10877C65.0032 7.21529 64.802 7.26855 64.5566 7.26855C64.02 7.26855 63.6404 7.01067 63.4178 6.49488L62.7157 6.7808C62.8584 7.11718 63.0824 7.3975 63.3878 7.62175ZM68.5576 7.89086C68.118 7.89086 67.7827 7.77593 67.5515 7.54607C67.3203 7.31621 67.2047 6.99104 67.2047 6.57056V4.40932H66.4684V3.70292H67.2047V2.44149H67.9925V3.70292H69.0199V4.40932H67.9925V6.5117C67.9925 6.96021 68.1808 7.18446 68.5576 7.18446C68.7003 7.18446 68.8201 7.16204 68.9172 7.11718L69.1912 7.78153C69.0199 7.85442 68.8087 7.89086 68.5576 7.89086ZM70.1568 7.62175C70.4622 7.84601 70.849 7.95813 71.317 7.95813C71.8022 7.95813 72.1989 7.8348 72.5072 7.58812C72.8154 7.34144 72.9695 7.03309 72.9695 6.66307C72.9695 6.38836 72.8754 6.14168 72.687 5.92303C72.4986 5.70438 72.2075 5.55021 71.8136 5.46051L70.9831 5.26709C70.6121 5.18299 70.4266 5.02321 70.4266 4.78775C70.4266 4.62516 70.5065 4.49622 70.6663 4.40091C70.8261 4.3056 71.0231 4.25795 71.2571 4.25795C71.7423 4.25795 72.0619 4.44015 72.2161 4.80457L72.901 4.52705C72.7755 4.2187 72.5671 3.98184 72.276 3.81645C71.9849 3.65106 71.6538 3.56837 71.2828 3.56837C70.8318 3.56837 70.4422 3.6819 70.114 3.90895C69.7858 4.13601 69.6217 4.43174 69.6217 4.79616C69.6217 5.11572 69.7416 5.36941 69.9813 5.55722C70.2211 5.74503 70.4751 5.87257 70.7434 5.93985L71.591 6.14168C71.9735 6.23699 72.1647 6.41919 72.1647 6.6883C72.1647 6.86209 72.0862 7.00225 71.9292 7.10877C71.7722 7.21529 71.571 7.26855 71.3256 7.26855C70.789 7.26855 70.4094 7.01067 70.1868 6.49488L69.4847 6.7808C69.6274 7.11718 69.8514 7.3975 70.1568 7.62175Z" fill="#5A668A"/>
<path fill-rule="evenodd" clip-rule="evenodd" d="M16.3867 1.42587C14.649 1.42587 13.1929 2.8847 13.1929 4.68496C13.1929 6.47901 14.649 7.93784 16.3867 7.93784C17.3214 7.93784 18.0285 7.62124 18.5858 7.02529C19.155 6.44176 19.3288 5.61613 19.3288 4.94568C19.3288 4.73462 19.3108 4.54839 19.2809 4.38699H16.3867V5.2747H18.442C18.382 5.77132 18.2203 6.13758 17.9746 6.3921C17.675 6.70249 17.2076 7.04392 16.3867 7.04392C15.1223 7.04392 14.1336 5.98859 14.1336 4.67875C14.1336 3.36891 15.1223 2.31359 16.3867 2.31359C17.0698 2.31359 17.5671 2.59293 17.9326 2.95299L18.5438 2.326C18.0285 1.81696 17.3454 1.42587 16.3867 1.42587ZM23.6671 5.88306C23.6671 4.66634 22.7563 3.78483 21.6358 3.78483C20.5152 3.78483 19.6044 4.66634 19.6044 5.88306C19.6044 7.09358 20.5152 7.98129 21.6358 7.98129C22.7563 7.98129 23.6671 7.09358 23.6671 5.88306ZM21.6358 7.14945C22.247 7.14945 22.7803 6.62799 22.7803 5.87685C22.7803 5.1195 22.247 4.60426 21.6358 4.60426C21.0186 4.60426 20.4913 5.1195 20.4913 5.87685C20.4913 6.62799 21.0246 7.14945 21.6358 7.14945ZM28.1012 5.88306C28.1012 4.66634 27.1904 3.78483 26.0699 3.78483C24.9494 3.78483 24.0386 4.66634 24.0386 5.88306C24.0386 7.09358 24.9494 7.98129 26.0699 7.98129C27.1904 7.98129 28.1012 7.09358 28.1012 5.88306ZM26.0699 7.14945C26.6811 7.14945 27.2144 6.62799 27.2144 5.87685C27.2144 5.1195 26.6871 4.60426 26.0699 4.60426C25.4527 4.60426 24.9254 5.1195 24.9254 5.87685C24.9254 6.62799 25.4587 7.14945 26.0699 7.14945ZM32.3616 3.85311H31.5108V4.19454H31.4808C31.2831 3.94623 30.8996 3.72275 30.4142 3.72275C29.4015 3.72275 28.4728 4.6415 28.4728 5.82719C28.4728 7.00046 29.4015 7.91921 30.4142 7.91921C30.8996 7.91921 31.2831 7.69573 31.4808 7.44122H31.5108V7.74539C31.5108 8.5462 31.0973 8.97454 30.4322 8.97454C29.8869 8.97454 29.5513 8.57103 29.4135 8.2296L28.6405 8.56482C28.8622 9.12352 29.4555 9.80638 30.4382 9.80638C31.4808 9.80638 32.3616 9.17319 32.3616 7.62124V3.85311ZM30.4921 7.09358C31.0973 7.09358 31.5767 6.56592 31.5707 5.82719C31.5707 5.08846 31.0973 4.54839 30.4921 4.54839C29.8809 4.54839 29.3656 5.08846 29.3656 5.82719C29.3656 6.55971 29.8809 7.09358 30.4921 7.09358ZM32.9668 1.67418V7.83851H33.8537V1.67418H32.9668ZM36.2925 7.14945C36.7479 7.14945 37.0595 6.91976 37.2931 6.57213L37.9822 7.05012C37.7545 7.39155 37.2212 7.98129 36.2925 7.98129C35.142 7.98129 34.2851 7.05633 34.2851 5.88306C34.2851 4.63529 35.154 3.78483 36.1966 3.78483C37.2452 3.78483 37.7605 4.64771 37.9283 5.1195L38.0182 5.3554L35.3098 6.51626C35.5195 6.93218 35.8371 7.14945 36.2925 7.14945ZM35.1659 5.81478C35.142 5.00776 35.7712 4.59184 36.2266 4.59184C36.5801 4.59184 36.8797 4.77187 36.9756 5.0388L35.1659 5.81478Z" fill="#5A668A"/>
</svg>
