<svg width="76" height="15" viewBox="0 0 76 15" fill="none" xmlns="http://www.w3.org/2000/svg">
<path fill-rule="evenodd" clip-rule="evenodd" d="M15.1686 7.45117C15.1686 11.5667 11.7733 14.903 7.5843 14.903C3.39525 14.903 0 11.5667 0 7.45117C0 3.33636 3.39525 0 7.5843 0C11.7733 0 15.1686 3.33636 15.1686 7.45117ZM7.65459 11.0393C5.67651 11.0393 4.07331 9.46359 4.07331 7.52023C4.07331 5.57687 5.67651 4.00181 7.65459 4.00181C9.63267 4.00181 11.2359 5.57687 11.2359 7.52023H9.93371C9.93371 6.28348 8.91343 5.28111 7.65459 5.28111C6.39574 5.28111 5.37546 6.28348 5.37546 7.52023C5.37546 8.75698 6.39574 9.75935 7.65459 9.75935V11.0393ZM7.65459 1.65597C4.35802 1.65597 1.68556 4.28153 1.68556 7.52023C1.68556 10.7589 4.35802 13.3852 7.65459 13.3852V11.9189C5.18234 11.9189 3.17799 9.94978 3.17799 7.52023C3.17799 5.09138 5.18234 3.12221 7.65459 3.12221C10.1275 3.12221 12.1312 5.09138 12.1312 7.52023H13.6236C13.6236 4.28153 10.9511 1.65597 7.65459 1.65597Z" fill="#5A668A"/>
<path fill-rule="evenodd" clip-rule="evenodd" d="M20.0406 3.48703V11.6016H21.8689V9.27177H22.3297C24.0998 9.27177 25.3856 8.40263 25.3856 6.30441C25.3856 4.42593 24.3 3.48703 22.2829 3.48703H20.0406ZM23.5687 6.36161C23.5687 7.34724 23.132 7.81111 22.2587 7.81111H21.8576V4.97071H22.2829C23.132 4.97071 23.5687 5.35296 23.5687 6.36161Z" fill="#5A668A"/>
<path fill-rule="evenodd" clip-rule="evenodd" d="M25.5616 8.61119C25.5616 10.6627 26.6707 11.7181 28.0637 11.7181C29.456 11.7181 30.5771 10.6515 30.5771 8.58748C30.5771 6.536 29.456 5.46945 28.0751 5.46945C26.6827 5.46945 25.5616 6.536 25.5616 8.61119ZM27.1904 8.58748C27.1904 7.45187 27.5206 6.89523 28.0516 6.89523C28.5941 6.89523 28.9484 7.45187 28.9484 8.59933C28.9484 9.73563 28.6062 10.3034 28.0751 10.3034C27.5326 10.3034 27.1904 9.73563 27.1904 8.58748Z" fill="#5A668A"/>
<path d="M33.5848 11.695C31.9447 11.695 30.9769 10.5699 30.9769 8.61118C30.9769 6.69782 31.9681 5.49246 33.6792 5.49246C34.2224 5.49246 34.6349 5.5964 35.036 5.74776L34.7762 7.20842C34.4929 7.08077 34.1634 6.97614 33.8205 6.97614C33.0303 6.97614 32.617 7.64857 32.617 8.58747C32.617 9.60798 33.0303 10.2107 33.8446 10.2107C34.1514 10.2107 34.4695 10.1179 34.8117 9.99023L35.0715 11.3937C34.6583 11.5674 34.1159 11.695 33.5848 11.695Z" fill="#5A668A"/>
<path d="M37.3953 8.72699V11.6023H35.6842V3.24359H37.3953V8.19337L38.7876 5.59711H40.6635L38.9999 8.47169L40.7111 11.6023H38.8111L37.3953 8.72699Z" fill="#5A668A"/>
<path fill-rule="evenodd" clip-rule="evenodd" d="M42.9171 5.46945C41.5596 5.46945 40.4854 6.55902 40.4854 8.62235C40.4854 10.918 41.6775 11.695 43.1763 11.695C43.8373 11.695 44.5331 11.5437 45.1231 11.2542L44.8164 10.0719C44.3329 10.2916 43.8018 10.4311 43.3531 10.4311C42.5983 10.4311 42.1382 10.0251 42.0786 9.20201H45.324V8.65723C45.324 6.54716 44.3563 5.46945 42.9171 5.46945ZM42.9171 6.75642C43.4354 6.75642 43.7074 7.28935 43.7429 8.19336H42.0786C42.1141 7.31236 42.3853 6.75642 42.9171 6.75642Z" fill="#5A668A"/>
<path d="M46.2427 9.8047V6.97616H45.5824V5.59641H46.2427V4.02066H47.9425V5.59641H49.2404V6.97616H47.9425V9.56195C47.9425 10.06 48.2137 10.2686 48.6738 10.2686C48.8747 10.2686 49.0515 10.2337 49.2404 10.1877V11.5555C48.9805 11.6365 48.6148 11.6832 48.1903 11.6832C46.8924 11.6832 46.2427 11.1614 46.2427 9.8047Z" fill="#5A668A"/>
<path d="M54.9858 11.695C52.838 11.695 51.4926 10.3502 51.4926 7.55581C51.4926 4.86677 52.8735 3.39426 54.9979 3.39426C55.7057 3.39426 56.2958 3.53307 56.7558 3.70745L56.4725 5.35366C56.1069 5.20299 55.6823 5.06348 55.1747 5.06348C54.0422 5.06348 53.3691 5.94448 53.3691 7.53279C53.3691 9.16714 54.0067 10.0251 55.2102 10.0251C55.6702 10.0251 56.1069 9.90932 56.4846 9.7468L56.7793 11.347C56.2723 11.5555 55.6468 11.695 54.9858 11.695Z" fill="#5A668A"/>
<path fill-rule="evenodd" clip-rule="evenodd" d="M57.1088 9.78168C57.1088 11.0805 57.7811 11.6832 58.7368 11.6832C59.3744 11.6832 59.8111 11.4628 60.2598 11.0805L60.4721 11.6023H61.9588L61.8289 10.5357V7.53279C61.8289 6.15305 61.1324 5.50433 59.5867 5.50433C58.7965 5.50433 58.0765 5.68988 57.4631 5.93332L57.7811 7.20844C58.2533 7.01103 58.7844 6.87222 59.28 6.87222C59.9168 6.87222 60.1533 7.15054 60.1533 7.66044V7.99666C59.87 7.93876 59.5398 7.89203 59.209 7.89203C58.4422 7.89203 57.9345 8.06572 57.593 8.41379C57.2742 8.71583 57.1088 9.20202 57.1088 9.78168ZM60.1533 8.90068V10.3272C59.9289 10.4541 59.6811 10.5469 59.4447 10.5469C58.9732 10.5469 58.702 10.3034 58.702 9.70076C58.702 9.39942 58.773 9.19086 58.9022 9.05135C59.0442 8.9237 59.2445 8.85464 59.5988 8.85464C59.799 8.85464 59.9878 8.8658 60.1533 8.90068Z" fill="#5A668A"/>
<path d="M64.6718 11.7062C63.8453 11.7062 63.0785 11.4976 62.4175 11.1495L62.7597 9.79352C63.4094 10.1409 64.0576 10.3502 64.6476 10.3502C65.085 10.3502 65.3207 10.1646 65.3207 9.90931C65.3207 9.65471 65.1794 9.53822 64.353 9.21386C63.2084 8.76185 62.6418 8.33286 62.6418 7.32421C62.6418 6.21093 63.4207 5.49246 64.7896 5.49246C65.4854 5.49246 66.123 5.65499 66.701 5.93331L66.3587 7.28934C65.8276 7.02288 65.2852 6.84849 64.7896 6.84849C64.424 6.84849 64.223 6.99986 64.223 7.2433C64.223 7.47488 64.353 7.59068 65.1673 7.91573C66.4539 8.41378 66.9019 8.87765 66.9019 9.8284C66.9019 11.0805 66.0051 11.7062 64.6718 11.7062Z" fill="#5A668A"/>
<path d="M67.8803 9.8047V6.97616H67.2192V5.59641H67.8803V4.02066H69.5793V5.59641H70.8772V6.97616H69.5793V9.56195C69.5793 10.06 69.8512 10.2686 70.3106 10.2686C70.5115 10.2686 70.6883 10.2337 70.8772 10.1877V11.5555C70.618 11.6365 70.2517 11.6832 69.8271 11.6832C68.5292 11.6832 67.8803 11.1614 67.8803 9.8047Z" fill="#5A668A"/>
<mask id="mask0_4_225" style="mask-type:luminance" maskUnits="userSpaceOnUse" x="71" y="5" width="5" height="7">
<path fill-rule="evenodd" clip-rule="evenodd" d="M71.2506 5.35645H75.8799V11.785H71.2506V5.35645Z" fill="white"/>
</mask>
<g mask="url(#mask0_4_225)">
<path d="M73.6498 11.7062C72.8233 11.7062 72.0565 11.4976 71.3955 11.1495L71.7377 9.79352C72.3874 10.1409 73.0356 10.3502 73.6256 10.3502C74.0623 10.3502 74.2987 10.1646 74.2987 9.90931C74.2987 9.65471 74.1567 9.53822 73.331 9.21386C72.1865 8.76185 71.6199 8.33286 71.6199 7.32421C71.6199 6.21093 72.3987 5.49246 73.7676 5.49246C74.4634 5.49246 75.101 5.65499 75.679 5.93331L75.3368 7.28934C74.8057 7.02288 74.2632 6.84849 73.7676 6.84849C73.402 6.84849 73.2011 6.99986 73.2011 7.2433C73.2011 7.47488 73.331 7.59068 74.1454 7.91573C75.4312 8.41378 75.8792 8.87765 75.8792 9.8284C75.8792 11.0805 74.9832 11.7062 73.6498 11.7062Z" fill="#5A668A"/>
</g>
</svg>
