<svg width="56" height="17" viewBox="0 0 56 17" fill="none" xmlns="http://www.w3.org/2000/svg">
<path fill-rule="evenodd" clip-rule="evenodd" d="M8.38928 0C3.75611 0 0 3.79393 0 8.47389C0 13.1541 3.75611 16.9477 8.38928 16.9477C13.023 16.9477 16.7787 13.1541 16.7787 8.47389C16.7787 3.79424 13.023 0.000404762 8.38918 0.000404762L8.38928 0ZM12.2366 12.2218C12.0863 12.4707 11.7637 12.5496 11.5173 12.3968C9.54755 11.1815 7.06792 10.9063 4.14771 11.5802C3.8663 11.645 3.5858 11.4669 3.52169 11.1826C3.45727 10.8982 3.63289 10.6149 3.91499 10.5501C7.1107 9.81264 9.85189 10.1302 12.0632 11.4952C12.3097 11.648 12.3878 11.9729 12.2366 12.2218ZM12.3638 10.1322C12.6713 10.3235 13.074 10.2253 13.2634 9.91444V9.91454C13.4527 9.60429 13.3555 9.19751 13.048 9.00626C10.4584 7.39885 6.67071 6.94652 3.62397 7.88031C3.27865 7.98656 3.08361 8.35489 3.18779 8.7043C3.29278 9.05311 3.65813 9.25002 4.00405 9.14448C6.67131 8.32666 10.1088 8.73213 12.3638 10.1322ZM13.3515 7.51177C10.6477 5.88959 6.18675 5.74043 3.60524 6.53185C3.1907 6.65884 2.75231 6.42246 2.62669 6.00373C2.50107 5.5848 2.73488 5.1423 3.14972 5.015C6.11312 4.10631 11.0394 4.28188 14.1524 6.14854C14.526 6.37207 14.6483 6.85849 14.4269 7.23461C14.2065 7.61124 13.7236 7.7354 13.3519 7.51177H13.3515ZM21.1184 6.71429C21.1184 7.22885 21.3759 7.47373 22.8245 7.82263L22.8275 7.82395C24.5916 8.25745 25.3119 8.93036 25.3089 10.1454C25.3089 11.5853 24.2199 12.5152 22.5349 12.5152C21.3428 12.5152 20.2388 12.0882 19.3412 11.2787C19.3032 11.2443 19.2992 11.1856 19.3322 11.1451L20.1256 10.1919C20.1417 10.1727 20.1647 10.1605 20.1908 10.1585C20.2148 10.1575 20.2408 10.1646 20.2599 10.1818C21.0313 10.8557 21.7215 11.1441 22.567 11.1441C23.3284 11.1441 23.8012 10.8112 23.8012 10.2759C23.8012 9.79301 23.5668 9.52283 22.1813 9.20034C20.5524 8.80276 19.6097 8.2877 19.6097 6.83309C19.6097 5.47663 20.7027 4.52858 22.2665 4.52858C23.3304 4.52858 24.24 4.84702 25.0484 5.50203C25.0875 5.5337 25.0955 5.59088 25.0665 5.63236L24.3592 6.63941C24.3442 6.66056 24.3221 6.67462 24.2961 6.67847C24.271 6.68252 24.245 6.67635 24.225 6.66086C23.5457 6.14945 22.8986 5.90102 22.2454 5.90102C21.5712 5.90102 21.1184 6.22817 21.1184 6.71429ZM29.1217 6.37965C28.3914 6.37965 27.7923 6.67027 27.2974 7.26578V6.59549C27.2974 6.54257 27.2554 6.49946 27.2033 6.49946H25.906C25.8539 6.49946 25.8118 6.54257 25.8118 6.59549V14.0432C25.8118 14.0958 25.8539 14.1393 25.906 14.1393H27.2033C27.2554 14.1393 27.2974 14.0958 27.2974 14.0432V11.6926C27.7923 12.2521 28.3914 12.5264 29.1217 12.5264C30.4791 12.5264 31.8536 11.471 31.8536 9.45332C31.8556 7.43527 30.4811 6.37955 29.1227 6.37955L29.1217 6.37965ZM28.8212 11.1977C29.7188 11.1977 30.3449 10.4803 30.3449 9.45332V9.45321C30.3449 8.44232 29.7037 7.70889 28.8212 7.70899C27.9346 7.70899 27.2654 8.45861 27.2654 9.45332C27.2654 10.4479 27.9346 11.1977 28.8212 11.1977ZM35.3749 6.37965C33.6267 6.37965 32.2573 7.73925 32.2573 9.47527C32.2573 11.1927 33.6177 12.5375 35.3538 12.5375C37.108 12.5375 38.4814 11.1826 38.4814 9.45332C38.4814 7.72994 37.117 6.37986 35.3749 6.37986V6.37965ZM33.744 9.45281C33.744 10.453 34.4452 11.2079 35.3749 11.2079C36.3135 11.2079 36.9948 10.4793 36.9948 9.47477C36.9948 8.47359 36.2895 7.71901 35.3538 7.71901C34.4212 7.71901 33.744 8.44809 33.744 9.45281ZM42.2141 6.49946H40.7865V5.02552C40.7865 4.9727 40.7445 4.9296 40.6924 4.9296H39.395C39.343 4.9296 39.2999 4.9727 39.2999 5.02552V6.49946H38.6768C38.6247 6.49946 38.5826 6.54257 38.5826 6.59549V7.72144C38.5826 7.77426 38.6247 7.81747 38.6768 7.81747H39.2999V10.7313C39.2999 11.9081 39.8799 12.5051 41.025 12.5051C41.4898 12.5051 41.8755 12.408 42.2391 12.1995C42.2692 12.1833 42.2872 12.151 42.2872 12.1165V11.0439C42.2872 11.0115 42.2702 10.9802 42.2421 10.963C42.2141 10.9448 42.179 10.9438 42.15 10.9589C41.9005 11.0854 41.6591 11.1441 41.3886 11.1441C40.9729 11.1441 40.7865 10.9529 40.7865 10.5258V7.81798H42.2141C42.2662 7.81798 42.3083 7.77487 42.3083 7.72195V6.5961C42.3103 6.54318 42.2682 6.50007 42.2151 6.50007L42.2141 6.49946ZM47.187 6.3242V6.50523V6.50554H49.4029C49.442 6.50554 49.4771 6.53013 49.4911 6.56726L51.0058 10.5602L52.3893 6.56989C52.4023 6.53154 52.4383 6.50554 52.4794 6.50554H53.8298C53.8609 6.50554 53.8899 6.52122 53.907 6.54723C53.925 6.57343 53.929 6.60683 53.917 6.63637L51.667 12.5092C51.2011 13.7214 50.6712 14.1727 49.7135 14.1727C49.2016 14.1727 48.7878 14.0655 48.329 13.8145C48.2849 13.7902 48.2669 13.7366 48.2879 13.6901L48.7277 12.7156C48.7377 12.6913 48.7588 12.6731 48.7838 12.664C48.8079 12.6569 48.8359 12.6589 48.8589 12.6711C49.1044 12.8077 49.3458 12.8765 49.5742 12.8765C49.8567 12.8765 50.0641 12.7824 50.2745 12.3108L48.4192 7.81777H47.208V12.3108C47.208 12.3645 47.1659 12.407 47.1128 12.407H45.8165C45.7644 12.407 45.7213 12.3645 45.7213 12.3108V7.81747H45.0982C45.0461 7.81747 45.0031 7.77426 45.0031 7.72144V6.58973C45.0031 6.5369 45.0461 6.4938 45.0982 6.4938H45.7213V6.21654C45.7213 4.92808 46.3555 4.24666 47.5526 4.24666C48.0455 4.24666 48.3741 4.32589 48.6305 4.4031C48.6716 4.41555 48.6977 4.45289 48.6977 4.49508V5.59907C48.6977 5.62983 48.6836 5.65887 48.6586 5.67699C48.6345 5.6951 48.6035 5.69986 48.5734 5.69035C48.33 5.60838 48.1126 5.55414 47.8421 5.55414C47.3893 5.55414 47.187 5.79164 47.187 6.3242ZM44.3038 6.49946H43.0065C42.9544 6.49946 42.9113 6.54257 42.9113 6.59549V12.3108C42.9113 12.3645 42.9544 12.407 43.0065 12.407H44.3038C44.3559 12.407 44.399 12.3645 44.399 12.3108V6.5959C44.399 6.54298 44.3569 6.49987 44.3038 6.49987V6.49946ZM42.732 4.8361C42.732 4.31709 43.1488 3.89695 43.6627 3.89695C44.1756 3.89695 44.5923 4.31719 44.5923 4.8361C44.5923 5.3554 44.1766 5.77605 43.6627 5.77605C43.1488 5.77605 42.732 5.3554 42.732 4.8361ZM55.025 8.33718C54.512 8.33718 54.1123 7.92079 54.1123 7.41514C54.1123 6.90949 54.5171 6.48833 55.03 6.48833C55.5429 6.48833 55.9426 6.90463 55.9426 7.40987C55.9426 7.91552 55.5379 8.33718 55.025 8.33718ZM54.2085 7.41514C54.2085 6.95543 54.5621 6.58001 55.03 6.58001C55.4948 6.58001 55.8464 6.95037 55.8464 7.40987C55.8464 7.86989 55.4928 8.245 55.025 8.245C54.5601 8.245 54.2085 7.87464 54.2085 7.41514ZM55.2323 7.50469L55.4908 7.86979H55.2724L55.04 7.53485H54.8406V7.86979H54.6583V6.902H55.0851C55.3085 6.902 55.4547 7.01705 55.4547 7.21073C55.4557 7.3694 55.3646 7.46634 55.2333 7.50469H55.2323ZM54.8406 7.06805H55.0781C55.1963 7.06805 55.2674 7.12138 55.2674 7.22095C55.2674 7.31557 55.1963 7.37416 55.0781 7.37416H54.8406V7.06805Z" fill="#5A668A"/>
</svg>
